# xmcd
#
# Track frame offsets:
#	150
#	7922
#	21147
#	37057
#	56765
#	70270
#	83905
#	103425
#	115615
#	132055
#	146665
#	164747
#	184995
#	197755
#
# Disc length: 2899 seconds
#
# Revision: 1
# Processed by: cddbd v1.4PL0 Copyright (c) Steve Scherf et al.
# Submitted via: audiograbber 1.81.02
#
DISCID=c90b510e
DTITLE=LOUISE PITRE - LOVE LETTER
DYEAR=1900
DGENRE=
TTITLE0=LOVE LETTER
TTITLE1=ALL OF MY LIFE HAS LED TO THIS
TTITLE2=JOURNEY TO THE PAST
TTITLE3=AN AFFAIR TO REMEMBER
TTITLE4=Y'A RIEN A VOIR
TTITLE5=ROCK A BYE YOUR BABY WITH A DIXIE MELODY
TTITLE6=GO THE DISTANCE
TTITLE7=A QUIET THING
TTITLE8=A NOTRE TOUR
TTITLE9=DARK IS THE NIGHT
TTITLE10=TO LOVE AGAIN
TTITLE11=LE CIEL EST BLEU
TTITLE12=IF I RULED THE WORLD
TTITLE13=LIMELIGHT
EXTD=
EXTT0=
EXTT1=
EXTT2=
EXTT3=
EXTT4=
EXTT5=
EXTT6=
EXTT7=
EXTT8=
EXTT9=
EXTT10=
EXTT11=
EXTT12=
EXTT13=
PLAYORDER=
